<mxfile host="app.diagrams.net" agent="Mozilla/5.0 (Windows NT 10.0; Win64; x64) AppleWebKit/537.36 (KHTML, like Gecko) Chrome/128.0.0.0 Safari/537.36" border="50" scale="3" compressed="false" locked="false" version="24.7.13">
  <diagram id="eFARZ7ye3ZyHCSxxOhFb" name="kni">
    <mxGraphModel dx="989" dy="545" grid="1" gridSize="10" guides="1" tooltips="1" connect="1" arrows="1" fold="1" page="1" pageScale="1" pageWidth="827" pageHeight="1169" math="0" shadow="0">
      <root>
        <mxCell id="0" />
        <mxCell id="1" parent="0" />
        <mxCell id="j9tfoosSE3qILXxTiQy9-3" value="&lt;font style=&quot;font-size: 24px;&quot;&gt;&lt;b style=&quot;&quot;&gt;DPVS&lt;/b&gt;&lt;/font&gt;&lt;div&gt;&lt;br&gt;&lt;/div&gt;&lt;div&gt;&lt;br&gt;&lt;/div&gt;&lt;div&gt;&lt;br&gt;&lt;/div&gt;&lt;div&gt;&lt;br&gt;&lt;/div&gt;&lt;div&gt;&lt;br&gt;&lt;/div&gt;&lt;div&gt;&lt;br&gt;&lt;/div&gt;" style="rounded=1;whiteSpace=wrap;html=1;fillColor=#1ba1e2;strokeColor=#006EAF;fontColor=#ffffff;" vertex="1" parent="1">
          <mxGeometry x="450" y="490" width="211.88" height="120" as="geometry" />
        </mxCell>
        <mxCell id="j9tfoosSE3qILXxTiQy9-5" value="&lt;font style=&quot;font-size: 14px;&quot;&gt;&lt;b&gt;dpdk0&lt;/b&gt;&lt;/font&gt;" style="rounded=1;whiteSpace=wrap;html=1;fillColor=#fff2cc;strokeColor=#d6b656;" vertex="1" parent="1">
          <mxGeometry x="501.88" y="523" width="70" height="30" as="geometry" />
        </mxCell>
        <mxCell id="j9tfoosSE3qILXxTiQy9-7" value="&lt;font style=&quot;font-size: 14px;&quot;&gt;&lt;b&gt;dpdk1&lt;/b&gt;&lt;/font&gt;" style="rounded=1;whiteSpace=wrap;html=1;fillColor=#fff2cc;strokeColor=#d6b656;" vertex="1" parent="1">
          <mxGeometry x="581.88" y="523" width="70" height="30" as="geometry" />
        </mxCell>
        <mxCell id="O6jyKfrmbOcH9zmBw9ze-5" style="edgeStyle=orthogonalEdgeStyle;rounded=0;orthogonalLoop=1;jettySize=auto;html=1;exitX=0.5;exitY=1;exitDx=0;exitDy=0;strokeColor=#FF0000;strokeWidth=2;startArrow=classicThin;startFill=0;endArrow=classicThin;endFill=0;dashed=1;" edge="1" parent="1" source="j9tfoosSE3qILXxTiQy9-5" target="O6jyKfrmbOcH9zmBw9ze-1">
          <mxGeometry relative="1" as="geometry" />
        </mxCell>
        <mxCell id="IBzB3Yzv9ICFWQqCQZ6M-7" value="&lt;font style=&quot;font-size: 18px;&quot;&gt;&lt;b&gt;kernel&amp;nbsp;&lt;/b&gt;&lt;/font&gt;&lt;div&gt;&lt;font style=&quot;font-size: 18px;&quot;&gt;&lt;b&gt;TCP/IP Stack&lt;/b&gt;&lt;/font&gt;&lt;div&gt;&lt;font style=&quot;font-size: 18px;&quot;&gt;&lt;br&gt;&lt;/font&gt;&lt;/div&gt;&lt;div&gt;&lt;font style=&quot;font-size: 18px;&quot;&gt;&lt;br&gt;&lt;/font&gt;&lt;/div&gt;&lt;/div&gt;" style="rounded=1;whiteSpace=wrap;html=1;strokeColor=#CC6600;strokeWidth=2;" vertex="1" parent="1">
          <mxGeometry x="150" y="670" width="210" height="110" as="geometry" />
        </mxCell>
        <mxCell id="O6jyKfrmbOcH9zmBw9ze-7" style="edgeStyle=orthogonalEdgeStyle;rounded=0;orthogonalLoop=1;jettySize=auto;html=1;entryX=0.25;entryY=0;entryDx=0;entryDy=0;strokeWidth=2;dashed=1;startArrow=classicThin;startFill=0;endArrow=classicThin;endFill=0;strokeColor=#FF0000;" edge="1" parent="1" source="IBzB3Yzv9ICFWQqCQZ6M-3" target="IBzB3Yzv9ICFWQqCQZ6M-4">
          <mxGeometry relative="1" as="geometry">
            <Array as="points">
              <mxPoint x="246" y="660" />
              <mxPoint x="188" y="660" />
            </Array>
          </mxGeometry>
        </mxCell>
        <mxCell id="IBzB3Yzv9ICFWQqCQZ6M-3" value="&lt;div&gt;&lt;span style=&quot;color: rgb(0, 0, 0);&quot;&gt;&lt;font style=&quot;font-size: 18px;&quot;&gt;&lt;b&gt;Kernel Based&lt;/b&gt;&lt;/font&gt;&lt;/span&gt;&lt;/div&gt;&lt;div&gt;&lt;span style=&quot;color: rgb(0, 0, 0);&quot;&gt;&lt;font size=&quot;3&quot; style=&quot;&quot;&gt;&lt;b&gt;Applications&lt;/b&gt;&lt;/font&gt;&lt;/span&gt;&lt;br&gt;&lt;/div&gt;&lt;div&gt;&lt;span style=&quot;color: rgb(0, 0, 0);&quot;&gt;&lt;font style=&quot;font-size: 14px;&quot;&gt;&lt;br&gt;&lt;/font&gt;&lt;/span&gt;&lt;/div&gt;&lt;div&gt;&lt;span style=&quot;color: rgb(0, 0, 0);&quot;&gt;&lt;font style=&quot;font-size: 14px;&quot;&gt;sshd|keepalived|ospfd|bird|...&lt;/font&gt;&lt;/span&gt;&lt;/div&gt;" style="rounded=1;whiteSpace=wrap;html=1;fillColor=#ffff88;strokeColor=#36393d;" vertex="1" parent="1">
          <mxGeometry x="140" y="490" width="212.5" height="122" as="geometry" />
        </mxCell>
        <mxCell id="O6jyKfrmbOcH9zmBw9ze-8" style="edgeStyle=orthogonalEdgeStyle;rounded=0;orthogonalLoop=1;jettySize=auto;html=1;entryX=0.5;entryY=1;entryDx=0;entryDy=0;strokeWidth=2;dashed=1;startArrow=classicThin;startFill=0;endArrow=classicThin;endFill=0;strokeColor=#FF0000;" edge="1" parent="1" source="IBzB3Yzv9ICFWQqCQZ6M-4" target="IBzB3Yzv9ICFWQqCQZ6M-8">
          <mxGeometry relative="1" as="geometry">
            <Array as="points">
              <mxPoint x="205" y="790" />
              <mxPoint x="435" y="790" />
            </Array>
          </mxGeometry>
        </mxCell>
        <mxCell id="IBzB3Yzv9ICFWQqCQZ6M-4" value="&lt;font color=&quot;#cc6600&quot; style=&quot;font-size: 14px;&quot;&gt;&lt;b&gt;dpdk0.kni&lt;/b&gt;&lt;/font&gt;" style="rounded=1;whiteSpace=wrap;html=1;strokeColor=#CC6600;" vertex="1" parent="1">
          <mxGeometry x="170" y="730" width="70" height="30" as="geometry" />
        </mxCell>
        <mxCell id="IBzB3Yzv9ICFWQqCQZ6M-6" value="&lt;font color=&quot;#cc6600&quot; style=&quot;font-size: 14px;&quot;&gt;&lt;b&gt;dpdk1.kni&lt;/b&gt;&lt;/font&gt;" style="rounded=1;whiteSpace=wrap;html=1;strokeColor=#CC6600;" vertex="1" parent="1">
          <mxGeometry x="270" y="730" width="70" height="30" as="geometry" />
        </mxCell>
        <mxCell id="O6jyKfrmbOcH9zmBw9ze-9" style="edgeStyle=orthogonalEdgeStyle;rounded=0;orthogonalLoop=1;jettySize=auto;html=1;entryX=0;entryY=0.5;entryDx=0;entryDy=0;exitX=0.75;exitY=0;exitDx=0;exitDy=0;strokeWidth=2;dashed=1;startArrow=classicThin;startFill=0;endArrow=classicThin;endFill=0;strokeColor=#FF0000;" edge="1" parent="1" source="IBzB3Yzv9ICFWQqCQZ6M-8" target="j9tfoosSE3qILXxTiQy9-5">
          <mxGeometry relative="1" as="geometry" />
        </mxCell>
        <mxCell id="IBzB3Yzv9ICFWQqCQZ6M-8" value="&lt;font style=&quot;font-size: 18px;&quot;&gt;KNI kmod&lt;/font&gt;&lt;div&gt;&lt;font style=&quot;font-size: 12px;&quot;&gt;rte_kni.ko|vhost.ko&lt;/font&gt;&lt;/div&gt;" style="rounded=1;whiteSpace=wrap;html=1;fillColor=#f5f5f5;strokeColor=#666666;gradientColor=#b3b3b3;" vertex="1" parent="1">
          <mxGeometry x="380" y="670" width="110" height="50" as="geometry" />
        </mxCell>
        <mxCell id="oO2gNdg5D-aUiUnC3wbW-1" value="&lt;div&gt;&lt;font style=&quot;font-size: 18px;&quot;&gt;Linux Drivers&lt;/font&gt;&lt;/div&gt;&lt;font style=&quot;font-size: 12px;&quot;&gt;UIO|VFIO|Bifurcated Driver&lt;/font&gt;" style="rounded=1;whiteSpace=wrap;html=1;fillColor=#f5f5f5;gradientColor=#b3b3b3;strokeColor=#666666;" vertex="1" parent="1">
          <mxGeometry x="497.88" y="670" width="164" height="50" as="geometry" />
        </mxCell>
        <mxCell id="oO2gNdg5D-aUiUnC3wbW-3" value="" style="endArrow=none;dashed=1;html=1;rounded=0;strokeWidth=2;dashPattern=1 1;strokeColor=#808080;" edge="1" parent="1">
          <mxGeometry width="50" height="50" relative="1" as="geometry">
            <mxPoint x="100" y="640" as="sourcePoint" />
            <mxPoint x="740" y="640" as="targetPoint" />
          </mxGeometry>
        </mxCell>
        <mxCell id="oO2gNdg5D-aUiUnC3wbW-4" value="" style="endArrow=none;dashed=1;html=1;rounded=0;strokeWidth=2;dashPattern=1 1;strokeColor=#808080;" edge="1" parent="1">
          <mxGeometry width="50" height="50" relative="1" as="geometry">
            <mxPoint x="94" y="805" as="sourcePoint" />
            <mxPoint x="734" y="805" as="targetPoint" />
          </mxGeometry>
        </mxCell>
        <mxCell id="O6jyKfrmbOcH9zmBw9ze-4" value="" style="group" vertex="1" connectable="0" parent="1">
          <mxGeometry x="510" y="830" width="132.87" height="64" as="geometry" />
        </mxCell>
        <mxCell id="O6jyKfrmbOcH9zmBw9ze-1" value="" style="sketch=0;pointerEvents=1;shadow=0;dashed=0;html=1;strokeColor=none;fillColor=#505050;labelPosition=center;verticalLabelPosition=bottom;verticalAlign=top;outlineConnect=0;align=center;shape=mxgraph.office.devices.nic;" vertex="1" parent="O6jyKfrmbOcH9zmBw9ze-4">
          <mxGeometry width="52.87" height="30" as="geometry" />
        </mxCell>
        <mxCell id="O6jyKfrmbOcH9zmBw9ze-2" value="" style="sketch=0;pointerEvents=1;shadow=0;dashed=0;html=1;strokeColor=none;fillColor=#505050;labelPosition=center;verticalLabelPosition=bottom;verticalAlign=top;outlineConnect=0;align=center;shape=mxgraph.office.devices.nic;" vertex="1" parent="O6jyKfrmbOcH9zmBw9ze-4">
          <mxGeometry x="80" width="52.87" height="30" as="geometry" />
        </mxCell>
        <mxCell id="O6jyKfrmbOcH9zmBw9ze-3" value="&lt;font style=&quot;font-size: 18px;&quot;&gt;&lt;b&gt;NICs&lt;/b&gt;&lt;/font&gt;" style="text;html=1;align=center;verticalAlign=middle;whiteSpace=wrap;rounded=0;" vertex="1" parent="O6jyKfrmbOcH9zmBw9ze-4">
          <mxGeometry x="39.879999999999995" y="34" width="60" height="30" as="geometry" />
        </mxCell>
        <mxCell id="IBzB3Yzv9ICFWQqCQZ6M-1" value="&lt;b&gt;&lt;font style=&quot;font-size: 14px;&quot;&gt;DPDK PMD&lt;/font&gt;&lt;/b&gt;" style="rounded=1;whiteSpace=wrap;html=1;fillColor=#fff2cc;strokeColor=#d6b656;" vertex="1" parent="1">
          <mxGeometry x="501.88" y="569" width="150" height="34" as="geometry" />
        </mxCell>
        <mxCell id="O6jyKfrmbOcH9zmBw9ze-10" value="&lt;font style=&quot;font-size: 18px;&quot;&gt;socket&lt;/font&gt;" style="text;html=1;align=center;verticalAlign=middle;whiteSpace=wrap;rounded=0;" vertex="1" parent="1">
          <mxGeometry x="186" y="617" width="60" height="30" as="geometry" />
        </mxCell>
        <mxCell id="O6jyKfrmbOcH9zmBw9ze-13" value="&lt;b&gt;&lt;font style=&quot;font-size: 10px;&quot; color=&quot;#ffffff&quot;&gt;rte_ring or&amp;nbsp;&lt;/font&gt;&lt;span style=&quot;font-size: 10px; background-color: initial; color: rgb(255, 255, 255);&quot;&gt;vhost_user&lt;/span&gt;&lt;/b&gt;" style="text;html=1;align=center;verticalAlign=middle;whiteSpace=wrap;rounded=0;rotation=90;" vertex="1" parent="1">
          <mxGeometry x="439.5" y="569.5" width="82.24" height="11" as="geometry" />
        </mxCell>
      </root>
    </mxGraphModel>
  </diagram>
</mxfile>
